<svg width="18" height="18" viewBox="0 0 18 18" fill="none" xmlns="http://www.w3.org/2000/svg">
<path d="M9.10071 0.25C6.78873 0.277893 4.5793 1.20872 2.94437 2.84366C1.30943 4.47859 0.378601 6.68802 0.350708 9C0.378601 11.312 1.30943 13.5214 2.94437 15.1563C4.5793 16.7913 6.78873 17.7221 9.10071 17.75C11.4127 17.7221 13.6221 16.7913 15.2571 15.1563C16.892 13.5214 17.8228 11.312 17.8507 9C17.8228 6.68802 16.892 4.47859 15.2571 2.84366C13.6221 1.20872 11.4127 0.277893 9.10071 0.25ZM14.1007 9.625H9.72571V14H8.47571V9.625H4.10071V8.375H8.47571V4H9.72571V8.375H14.1007V9.625Z" fill="#888888"/>
</svg>
