<svg width="16" height="18" viewBox="0 0 16 18" fill="none" xmlns="http://www.w3.org/2000/svg">
<path d="M4.25 6.4375C5.0071 6.28067 5.67922 5.84886 6.13656 5.22546C6.5939 4.60206 6.80401 3.8313 6.72631 3.06205C6.64861 2.2928 6.28861 1.57963 5.71584 1.06028C5.14307 0.540934 4.39817 0.252255 3.625 0.25C2.85003 0.249221 2.10242 0.536425 1.5273 1.05586C0.952172 1.57529 0.590569 2.28989 0.512685 3.06094C0.434802 3.83199 0.646194 4.60447 1.10583 5.22842C1.56546 5.85237 2.24053 6.28328 3 6.4375V11.5625C2.24291 11.7193 1.57079 12.1511 1.11345 12.7745C0.656107 13.3979 0.445998 14.1687 0.5237 14.9379C0.601402 15.7072 0.961403 16.4204 1.53417 16.9397C2.10694 17.4591 2.85184 17.7477 3.625 17.75C4.39997 17.7508 5.14759 17.4636 5.72271 16.9441C6.29784 16.4247 6.65944 15.7101 6.73732 14.9391C6.81521 14.168 6.60382 13.3955 6.14418 12.7716C5.68455 12.1476 5.00948 11.7167 4.25 11.5625V10.25H9.875C10.2854 10.25 10.6917 10.1692 11.0709 10.0121C11.45 9.85508 11.7945 9.62489 12.0847 9.33471C12.3749 9.04453 12.6051 8.70003 12.7621 8.32089C12.9192 7.94174 13 7.53538 13 7.125V6.4375C13.7571 6.28067 14.4292 5.84886 14.8866 5.22546C15.3439 4.60206 15.554 3.8313 15.4763 3.06205C15.3986 2.2928 15.0386 1.57963 14.4658 1.06028C13.8931 0.540934 13.1482 0.252255 12.375 0.25C11.6 0.249221 10.8524 0.536425 10.2773 1.05586C9.70217 1.57529 9.34057 2.28989 9.26268 3.06094C9.1848 3.83199 9.39619 4.60447 9.85582 5.22842C10.3155 5.85237 10.9905 6.28328 11.75 6.4375V7.125C11.75 7.62228 11.5525 8.09919 11.2008 8.45083C10.8492 8.80246 10.3723 9 9.875 9H4.25V6.4375Z" fill="#888888"/>
</svg>
