<svg width="20" height="20" viewBox="0 0 20 20" fill="none" xmlns="http://www.w3.org/2000/svg">
<path fill-rule="evenodd" clip-rule="evenodd" d="M3.36364 0C1.55083 0 0 1.51251 0 3.33333V5.57692C0 7.52226 1.57427 8.87631 3.2933 8.99752C3.31671 8.99917 3.34017 9 3.36364 9H5.63636C7.44917 9 9 7.48749 9 5.66667V3.33333C9 1.56383 7.59068 0 5.72727 0H3.36364ZM14.3636 0C12.5508 0 11 1.51251 11 3.33333V5.66667C11 7.48749 12.5508 9 14.3636 9H16.6364C18.4492 9 20 7.48749 20 5.66667V3.33333C20 1.56383 18.5907 0 16.7273 0H14.3636ZM3.36364 11C1.55083 11 0 12.5125 0 14.3333V16.6667C0 18.5453 1.59974 19.8781 3.2933 19.9975C3.31671 19.9992 3.34017 20 3.36364 20H5.63636C7.44917 20 9 18.4875 9 16.6667V14.3333C9 12.5638 7.59068 11 5.72727 11H3.36364ZM14.3636 11C12.5508 11 11 12.5125 11 14.3333V16.6667C11 18.4875 12.5508 20 14.3636 20H16.6364C18.4492 20 20 18.4875 20 16.6667V14.3333C20 12.5638 18.5907 11 16.7273 11H14.3636Z" fill="#ffffff"/>
</svg>
