<svg width="20" height="20" viewBox="0 0 20 20" fill="none" xmlns="http://www.w3.org/2000/svg">
<path fill-rule="evenodd" clip-rule="evenodd" d="M7.39583 12.3385C4.2776 12.8828 0.625 14.2724 0.625 16.25V19.375H19.375V16.25C19.375 14.2724 15.7224 12.8828 12.6042 12.3385V14.6875H7.39583V12.3385ZM4.27083 19.375V14.6875H5.3125V19.375H4.27083ZM15.2083 14.6875V19.375H16.25V14.6875H15.2083ZM10.5208 0.655208V2.95833C10.5208 3.09647 10.466 3.22894 10.3683 3.32662C10.2706 3.42429 10.1381 3.47917 10 3.47917C9.86187 3.47917 9.72939 3.42429 9.63171 3.32662C9.53404 3.22894 9.47917 3.09647 9.47917 2.95833V0.625C8.94145 0.653421 8.41276 0.775019 7.91667 0.984375V4C7.91667 4.13813 7.86179 4.27061 7.76412 4.36828C7.66644 4.46596 7.53397 4.52083 7.39583 4.52083C7.2577 4.52083 7.12522 4.46596 7.02755 4.36828C6.92987 4.27061 6.875 4.13813 6.875 4V1.63281C6.16146 2.24635 5.75 3.04219 5.61927 3.73958C5.61479 3.76383 5.61063 3.78814 5.60677 3.8125L5.59635 3.82292C5.55 4.15052 5.57552 4.42031 5.64219 4.60573C5.68489 4.73475 5.67547 4.87535 5.61594 4.99752C5.55641 5.11969 5.45149 5.21375 5.32357 5.25963C5.19564 5.30551 5.05486 5.29957 4.93125 5.24309C4.80764 5.1866 4.71101 5.08404 4.66198 4.95729C4.65315 4.93316 4.64482 4.90885 4.63698 4.88438C1.6125 8.83333 18.4042 8.83125 15.3578 4.8776C15.3499 4.9031 15.3416 4.92845 15.3328 4.95365C15.2848 5.08085 15.1889 5.18423 15.0657 5.24171C14.9425 5.29918 14.8017 5.3062 14.6734 5.26125C14.545 5.2163 14.4394 5.12295 14.379 5.00114C14.3185 4.87934 14.3081 4.73874 14.35 4.60937C14.425 4.39375 14.4469 4.125 14.4062 3.82812C14.4031 3.82583 14.4 3.82358 14.3969 3.82135C14.2844 3.11719 13.8562 2.33854 13.125 1.725V4C13.125 4.13813 13.0701 4.27061 12.9725 4.36828C12.8748 4.46596 12.7423 4.52083 12.6042 4.52083C12.466 4.52083 12.3336 4.46596 12.2359 4.36828C12.1382 4.27061 12.0833 4.13813 12.0833 4V1.07396C11.88 0.982606 11.6706 0.905171 11.4568 0.842187C11.1507 0.753 10.8376 0.69027 10.5208 0.654688V0.655208Z" fill="#888888"/>
</svg>
