<svg width="20" height="20" viewBox="0 0 20 20" fill="none" xmlns="http://www.w3.org/2000/svg">
<path d="M9.99999 3.77188C9.99999 3.35862 9.91859 2.94942 9.76045 2.56762C9.6023 2.18582 9.3705 1.83891 9.07829 1.5467C8.78607 1.25449 8.43917 1.02269 8.05737 0.864543C7.67557 0.706397 7.26637 0.625001 6.85311 0.625001H3.77186C3.35524 0.619641 2.94169 0.697071 2.55523 0.852798C2.16876 1.00853 1.81707 1.23945 1.52056 1.53217C1.22405 1.82489 0.988619 2.17358 0.827933 2.55801C0.667247 2.94244 0.584503 3.35496 0.584503 3.77162C0.584503 4.18828 0.667247 4.60079 0.827933 4.98522C0.988619 5.36965 1.22405 5.71834 1.52056 6.01106C1.81707 6.30378 2.16876 6.53471 2.55523 6.69043C2.94169 6.84616 3.35524 6.92359 3.77186 6.91823H4.37499V8.4375C4.37499 8.4375 9.99999 7.67813 9.99999 3.77188ZM7.1354 12.0833C7.1354 13.2344 6.20311 14.1667 5.05207 14.1667C3.90103 14.1667 2.96874 13.2344 2.96874 12.0833C2.96874 10.9323 3.90103 10 5.05207 10C6.20311 10 7.1354 10.9323 7.1354 12.0833ZM5.05207 15.2083C3.57447 15.2083 0.624987 15.9531 0.624987 17.4307V19.375H9.47915V17.4307C9.47915 15.9526 6.52967 15.2083 5.05207 15.2083ZM14.9479 14.1667C16.0989 14.1667 17.0312 13.2344 17.0312 12.0833C17.0312 10.9323 16.0989 10 14.9479 10C13.7969 10 12.8646 10.9323 12.8646 12.0833C12.8646 13.2344 13.7969 14.1667 14.9479 14.1667ZM14.9479 15.2083C13.4703 15.2083 10.5208 15.9531 10.5208 17.4307V19.375H19.375V17.4307C19.375 15.9526 16.4255 15.2083 14.9479 15.2083ZM14.1885 1.14583C13.3539 1.14583 12.5535 1.47738 11.9634 2.06753C11.3732 2.65769 11.0417 3.45811 11.0417 4.29271C11.0417 8.19896 16.0417 8.95833 16.0417 8.95833V7.43906H16.2281C16.6447 7.44442 17.0583 7.36699 17.4447 7.21127C17.8312 7.05554 18.1829 6.82461 18.4794 6.53189C18.7759 6.23917 19.0114 5.89048 19.172 5.50605C19.3327 5.12162 19.4155 4.70911 19.4155 4.29245C19.4155 3.87579 19.3327 3.46328 19.172 3.07885C19.0114 2.69442 18.7759 2.34573 18.4794 2.053C18.1829 1.76028 17.8312 1.52936 17.4447 1.37363C17.0583 1.2179 16.6447 1.14047 16.2281 1.14583H14.1885Z" fill="#ffffff"/>
</svg>
