<svg width="34" height="54" viewBox="0 0 34 54" fill="none" xmlns="http://www.w3.org/2000/svg">
<path d="M0.0800171 47.34L0.830017 54L5.69001 49.38L14 26.58C11.96 26.07 10.16 25.05 8.69001 23.64L0.0800171 47.34ZM25.31 23.64C23.84 25.05 22.01 26.07 20 26.58L28.31 49.38L33.17 54L33.95 47.34L25.31 23.64ZM26 15C26 11.1 23.48 7.8 20 6.54V0H14V6.54C10.52 7.8 8.00002 11.1 8.00002 15C8.00002 19.98 12.02 24 17 24C21.98 24 26 19.98 26 15ZM17 18C15.35 18 14 16.65 14 15C14 13.35 15.35 12 17 12C18.65 12 20 13.35 20 15C20 16.65 18.65 18 17 18Z" fill="#888888"/>
</svg>
