<svg width="62" height="52" viewBox="0 0 62 52" fill="none" xmlns="http://www.w3.org/2000/svg">
<path d="M60.1768 44.5793C59.0113 43.4318 44.8881 37.9688 42.3253 36.9383C39.7761 35.9258 38.7591 33.12 38.7591 33.12C38.7591 33.12 37.6116 33.7545 37.6116 31.9725C37.6116 30.1882 38.7591 33.12 39.9066 26.2395C39.9066 26.2395 43.0903 25.3463 42.4581 17.9595H41.6931C41.6931 17.9595 43.6056 10.062 41.6931 7.389C39.7738 4.716 39.0223 2.934 34.808 1.656C30.6005 0.380251 32.1306 0.634502 29.0751 0.765002C26.0151 0.893252 23.4681 2.54925 23.4681 3.438C23.4681 3.438 21.5556 3.56625 20.7951 4.33125C20.0301 5.09625 18.7566 8.66025 18.7566 9.55125C18.7566 10.4423 19.3933 16.4363 20.0301 17.7053L19.2718 17.9528C18.6351 25.3418 21.8188 26.2373 21.8188 26.2373C22.9663 33.1178 24.1138 30.186 24.1138 31.9702C24.1138 33.7523 22.9663 33.1178 22.9663 33.1178C22.9663 33.1178 21.9471 35.9213 19.4001 36.936C16.8531 37.9553 2.71405 43.4318 1.5643 44.577C0.416802 45.747 0.545052 51.093 0.545052 51.093H27.6261L29.6016 43.308L27.8466 41.553L30.8683 38.5267L33.8901 41.5508L32.135 43.3058L34.1105 51.0908H61.1916C61.1916 51.0908 61.3333 45.7402 60.1723 44.5725L60.1768 44.5793Z" fill="#888888"/>
</svg>
