<svg width="54" height="57" viewBox="0 0 54 57" fill="none" xmlns="http://www.w3.org/2000/svg">
<path fill-rule="evenodd" clip-rule="evenodd" d="M23.5065 2.2C24.8041 1.41407 26.2922 0.998558 27.8092 0.998558C29.3263 0.998558 30.8144 1.41407 32.112 2.2L35.1675 4.069C39.4545 6.6895 44.337 7.273 49.242 7.861C50.8275 8.0515 52.4145 8.2405 53.985 8.5C53.985 8.5 54.0195 11.251 53.9835 12.499L53.67 23.2255C53.4 32.425 49.3095 41.1475 42.2925 47.4865C38.982 50.476 35.5575 53.1775 31.623 55.4215C30.4635 56.0775 29.1634 56.4453 27.8322 56.4941C26.5009 56.543 25.1774 56.2713 23.973 55.702C19.4295 53.542 15.4065 50.803 11.733 47.4865C4.71599 41.1475 0.625487 32.425 0.356987 23.2255L0.044987 12.5335C0.00748698 11.266 0.044987 8.5 0.044987 8.5C1.31999 8.35 2.61899 8.2255 3.92849 8.101C9.70799 7.552 15.6795 6.985 20.5785 3.991L23.508 2.2H23.5065ZM24 25V14.5H30V25H40.5V31H30V41.5H24V31H13.5V25H24Z" fill="#888888"/>
</svg>
