<svg width="54" height="54" viewBox="0 0 54 54" fill="none" xmlns="http://www.w3.org/2000/svg">
<path fill-rule="evenodd" clip-rule="evenodd" d="M19.5 33.735C10.5195 35.3025 0 39.3045 0 45V54H54V45C54 39.3045 43.4805 35.3025 34.5 33.735V40.5H19.5V33.735ZM10.5 54V40.5H13.5V54H10.5ZM42 40.5V54H45V40.5H42ZM28.5 0.0870001V6.72C28.5 7.11782 28.342 7.49936 28.0607 7.78066C27.7794 8.06196 27.3978 8.22 27 8.22C26.6022 8.22 26.2206 8.06196 25.9393 7.78066C25.658 7.49936 25.5 7.11782 25.5 6.72V0C23.9514 0.0818512 22.4288 0.432056 21 1.035V9.72C21 10.1178 20.842 10.4994 20.5607 10.7807C20.2794 11.062 19.8978 11.22 19.5 11.22C19.1022 11.22 18.7206 11.062 18.4393 10.7807C18.158 10.4994 18 10.1178 18 9.72V2.9025C15.945 4.6695 14.76 6.9615 14.3835 8.97C14.3706 9.03984 14.3586 9.10985 14.3475 9.18L14.3175 9.21C14.184 10.1535 14.2575 10.9305 14.4495 11.4645C14.5725 11.8361 14.5453 12.241 14.3739 12.5928C14.2025 12.9447 13.9003 13.2156 13.5319 13.3477C13.1635 13.4799 12.758 13.4628 12.402 13.3001C12.046 13.1374 11.7677 12.842 11.6265 12.477C11.6011 12.4075 11.5771 12.3375 11.5545 12.267C2.844 23.64 51.204 23.634 42.4305 12.2475C42.4078 12.3209 42.3838 12.3939 42.3585 12.4665C42.2202 12.8328 41.9441 13.1306 41.5892 13.2961C41.2344 13.4616 40.8288 13.4818 40.4593 13.3524C40.0897 13.2229 39.7854 12.9541 39.6114 12.6033C39.4374 12.2525 39.4075 11.8476 39.528 11.475C39.744 10.854 39.807 10.08 39.69 9.225C39.6811 9.2184 39.6721 9.21191 39.663 9.2055C39.339 7.1775 38.106 4.935 36 3.168V9.72C36 10.1178 35.842 10.4994 35.5607 10.7807C35.2794 11.062 34.8978 11.22 34.5 11.22C34.1022 11.22 33.7206 11.062 33.4393 10.7807C33.158 10.4994 33 10.1178 33 9.72V1.293C32.4143 1.02991 31.8114 0.806892 31.1955 0.6255C30.3141 0.368641 29.4123 0.187977 28.5 0.0855002V0.0870001Z" fill="#888888"/>
</svg>
